<?xml version="1.0" encoding="utf-8"?>
<!-- Generator: Adobe Illustrator 25.3.1, SVG Export Plug-In . SVG Version: 6.00 Build 0)  -->
<svg version="1.1" id="Layer_1" xmlns="http://www.w3.org/2000/svg" xmlns:xlink="http://www.w3.org/1999/xlink" x="0px" y="0px"
	 viewBox="0 0 168 155" style="enable-background:new 0 0 168 155;" xml:space="preserve">
<style type="text/css">
	.st0{fill-rule:evenodd;clip-rule:evenodd;fill:#595959;}
</style>
<g>
	<path class="st0" d="M157.9,9.9c-0.6-3-3.6-4.1-6.5-3.6l-27.8,10.6c-1.7,0.6-2.9,1.8-3.5,3.6l-20,65.4c-14.2,0-60.8,0-66.7,0
		C31,78.8,19.2,36.4,19.2,36.4c-1.2-2.9-4.1-4.7-6.5-3.6c-3,0.7-4.7,3.6-4.1,6.5l15.4,53c0.6,2.4,2.9,4.1,5.3,4.1h67.3
		c-1.2,4.7-3,11.2-4.2,14.8c-7.1,0-63.7,0-63.7,0c-3,0-5.3,2.4-5.3,5.3c0,3,2.3,4.7,5.3,4.7h67.9c2.3,0,4.1-1.2,5.3-3.5l7.1-25.4
		l0,0c1.2-2.9,19.5-61.9,20.6-65.9c4.1-1.7,25.4-10,25.4-10c2.4-0.6,3.6-2.4,3.6-4.7C158.5,11.1,158.5,10.4,157.9,9.9L157.9,9.9z
		 M31.6,125.3c-6.5,0-11.7,5.4-11.7,11.8c0,5.8,5.3,11.7,11.7,11.7c6.5,0,11.8-5.9,11.8-11.7C43.4,130.7,38.1,125.3,31.6,125.3
		L31.6,125.3z M95.3,125.3c-6.5,0-11.8,5.4-11.8,11.8c0,5.8,5.3,11.7,11.8,11.7c6.5,0,11.8-5.9,11.8-11.7
		C107.1,130.7,101.8,125.3,95.3,125.3L95.3,125.3z"/>
</g>
</svg>
